::::::: UnKnOwN Presents :::::::


:::: Mr Poppers Penguins 2011 CAM Xvid UnKnOwN ::::


::NOTES:: 


Encoded By .......:UnKnOwN 
Release Date ......... 2011
Runtime ..........:1:27 
Source ......... Russian/FU
IMDb URL .........:http://www.imdb.com/title/tt1396218/ 
File Type ......... Single AVI
Language .........:English 
Compatible ....... I made sure it wasn't(:
File Size ........:893mb 
Genre ......... Comedy/Family


::Details::


Video
ID: 0
Format: MPEG-4 Visual
Format profile: Advanced Simple@L5
Format settings, BVOP: Yes
Format settings, QPel: No
Format settings, GMC: No warppoints
Format settings, Matrix: Custom
Codec ID: XVID
Codec ID/Hint: XviD
Duration: 1h 27mn
Bit rate: 1 298 Kbps
Width: 680 pixels
Height: 372 pixels
Display aspect ratio: 16:9
Frame rate: 25.000 fps
Color space: YUV
Chroma subsampling: 4:2:0
Bit depth: 8 bits
Scan type: Progressive
Bits/(Pixel*Frame): 0.205
Stream size: 810 MiB (91%)
Writing library: XviD 1.2.1 (UTC 2008-12-04)


Audio
ID: 1
Format: AC-3
Format/Info: Audio Coding 3
Mode extension: CM (complete main)
Codec ID: 2000
Duration: 1h 27mn
Bit rate mode: Constant
Bit rate: 128 Kbps
Channel(s): 2 channels
Channel positions: Front: L R
Sampling rate: 48.0 KHz
Bit depth: 16 bits
Stream size: 79.8 MiB (9%)
Alignment: Aligned on interleaves
Interleave, duration: 480 ms (12.00 video frames)
Interleave, preload duration: 960 ms


::SYSPNOSIS::


The life of a businessman begins to change after he inherits six penguins, and as he transforms his apartment
into a winter wonderland, his professional side starts to unravel


::More Information::

 
http://www.postimg.com/image/42000/photo-41124.jpg


::Screens::

 
http://www.postimg.com/image/42000/photo-41123.jpg
 
http://www.postimg.com/image/42000/photo-41125.jpg
 
http://www.postimg.com/image/42000/photo-41126.jpg


ENJOY!